<svg xmlns="http://www.w3.org/2000/svg" width="860" height="350" viewBox="0 0 860 350" role="img" aria-label="Microservice architecture: client, API gateway, services, databases">
<title>How I build backends</title>
<defs>
  <linearGradient id="abg" x1="0" y1="0" x2="1" y2="1"><stop offset="0" stop-color="#0b1220"/><stop offset="1" stop-color="#101a2e"/></linearGradient>
  <linearGradient id="gw" x1="0" y1="0" x2="0" y2="1"><stop offset="0" stop-color="#6366f1"/><stop offset="1" stop-color="#4338ca"/></linearGradient>
  <filter id="ag" x="-50%" y="-50%" width="200%" height="200%"><feGaussianBlur stdDeviation="4" result="b"/><feMerge><feMergeNode in="b"/><feMergeNode in="SourceGraphic"/></feMerge></filter>
</defs>
<style>
  .t{font-family:'JetBrains Mono','Fira Code',Consolas,monospace;}
  .flow{fill:none;stroke:#334766;stroke-width:1.6;stroke-dasharray:6 6;animation:f 1.2s linear infinite;}
  @keyframes f{to{stroke-dashoffset:-24}}
  .box{fill:#16223a;stroke:#2b3b5c;}
  .pulse{animation:p 2.4s ease-in-out infinite;}
  @keyframes p{0%,100%{opacity:.35}50%{opacity:1}}
</style>
<rect width="860" height="350" rx="16" fill="url(#abg)"/>
<text class="t" x="24" y="26" fill="#94a3b8" font-size="12">// request lifecycle — the way I like to build backends</text>
<rect class="box" x="24" y="140" width="110" height="56" rx="10"/>
<text class="t" x="79" y="165" fill="#e2e8f0" font-size="14" text-anchor="middle" font-weight="700">Client</text>
<text class="t" x="79" y="183" fill="#64748b" font-size="10.5" text-anchor="middle">web · mobile</text>
<rect x="146" y="118" width="96" height="100" rx="12" fill="url(#gw)" filter="url(#ag)" class="pulse"/>
<rect x="146" y="118" width="96" height="100" rx="12" fill="url(#gw)"/>
<text class="t" x="194" y="158" fill="#fff" font-size="12.5" text-anchor="middle" font-weight="700">API</text>
<text class="t" x="194" y="174" fill="#fff" font-size="12.5" text-anchor="middle" font-weight="700">Gateway</text>
<text class="t" x="194" y="196" fill="#c7d2fe" font-size="10" text-anchor="middle">JWT · routing</text>
<rect class="box" x="290" y="40" width="134" height="46" rx="9"/>
<circle class="pulse" style="animation-delay:0.0s" cx="306" cy="63.0" r="4" fill="#34d399"/>
<text class="t" x="318" y="67.5" fill="#e2e8f0" font-size="13">Auth</text>
<text class="t" x="416" y="67.0" fill="#475569" font-size="9.5" text-anchor="end">:8081</text>
<rect class="box" x="290" y="96" width="134" height="46" rx="9"/>
<circle class="pulse" style="animation-delay:0.4s" cx="306" cy="119.0" r="4" fill="#34d399"/>
<text class="t" x="318" y="123.5" fill="#e2e8f0" font-size="13">Listings</text>
<text class="t" x="416" y="123.0" fill="#475569" font-size="9.5" text-anchor="end">:8082</text>
<rect class="box" x="290" y="152" width="134" height="46" rx="9"/>
<circle class="pulse" style="animation-delay:0.8s" cx="306" cy="175.0" r="4" fill="#34d399"/>
<text class="t" x="318" y="179.5" fill="#e2e8f0" font-size="13">Chat</text>
<text class="t" x="416" y="179.0" fill="#475569" font-size="9.5" text-anchor="end">:8083</text>
<rect class="box" x="290" y="208" width="134" height="46" rx="9"/>
<circle class="pulse" style="animation-delay:1.2s" cx="306" cy="231.0" r="4" fill="#34d399"/>
<text class="t" x="318" y="235.5" fill="#e2e8f0" font-size="13">Search</text>
<text class="t" x="416" y="235.0" fill="#475569" font-size="9.5" text-anchor="end">:8084</text>
<rect class="box" x="290" y="264" width="134" height="46" rx="9"/>
<circle class="pulse" style="animation-delay:1.6s" cx="306" cy="287.0" r="4" fill="#34d399"/>
<text class="t" x="318" y="291.5" fill="#e2e8f0" font-size="13">Admin</text>
<text class="t" x="416" y="291.0" fill="#475569" font-size="9.5" text-anchor="end">:8085</text>
<ellipse cx="680" cy="70" rx="60" ry="10" fill="#4479A1" opacity=".9"/>
<rect x="620" y="70" width="120" height="40" fill="#4479A1" opacity=".75"/>
<ellipse cx="680" cy="110" rx="60" ry="10" fill="#4479A1" opacity=".9"/>
<text class="t" x="680" y="96" fill="#fff" font-size="13" text-anchor="middle" font-weight="700">MySQL</text>
<ellipse cx="680" cy="150" rx="60" ry="10" fill="#336791" opacity=".9"/>
<rect x="620" y="150" width="120" height="40" fill="#336791" opacity=".75"/>
<ellipse cx="680" cy="190" rx="60" ry="10" fill="#336791" opacity=".9"/>
<text class="t" x="680" y="176" fill="#fff" font-size="13" text-anchor="middle" font-weight="700">PostgreSQL</text>
<ellipse cx="680" cy="230" rx="60" ry="10" fill="#47A248" opacity=".9"/>
<rect x="620" y="230" width="120" height="40" fill="#47A248" opacity=".75"/>
<ellipse cx="680" cy="270" rx="60" ry="10" fill="#47A248" opacity=".9"/>
<text class="t" x="680" y="256" fill="#fff" font-size="13" text-anchor="middle" font-weight="700">MongoDB</text>
<path id="p0" class="flow" d="M134 168 H146"/>
<circle r="3.5" fill="#22d3ee" filter="url(#ag)"><animateMotion dur="2.4s" begin="0.00s" repeatCount="indefinite" keyPoints="0;1" keyTimes="0;1" calcMode="linear"><mpath href="#p0"/></animateMotion></circle>
<path id="p1" class="flow" d="M242 168 C 266 168, 266 63.0, 290 63.0"/>
<circle r="3.5" fill="#22d3ee" filter="url(#ag)"><animateMotion dur="2.4s" begin="-0.00s" repeatCount="indefinite" keyPoints="0;1" keyTimes="0;1" calcMode="linear"><mpath href="#p1"/></animateMotion></circle>
<path id="p2" class="flow" d="M242 168 C 266 168, 266 119.0, 290 119.0"/>
<circle r="3.5" fill="#22d3ee" filter="url(#ag)"><animateMotion dur="2.4s" begin="-0.15s" repeatCount="indefinite" keyPoints="0;1" keyTimes="0;1" calcMode="linear"><mpath href="#p2"/></animateMotion></circle>
<path id="p3" class="flow" d="M242 168 C 266 168, 266 175.0, 290 175.0"/>
<circle r="3.5" fill="#22d3ee" filter="url(#ag)"><animateMotion dur="2.4s" begin="-0.30s" repeatCount="indefinite" keyPoints="0;1" keyTimes="0;1" calcMode="linear"><mpath href="#p3"/></animateMotion></circle>
<path id="p4" class="flow" d="M242 168 C 266 168, 266 231.0, 290 231.0"/>
<circle r="3.5" fill="#22d3ee" filter="url(#ag)"><animateMotion dur="2.4s" begin="-0.45s" repeatCount="indefinite" keyPoints="0;1" keyTimes="0;1" calcMode="linear"><mpath href="#p4"/></animateMotion></circle>
<path id="p5" class="flow" d="M242 168 C 266 168, 266 287.0, 290 287.0"/>
<circle r="3.5" fill="#22d3ee" filter="url(#ag)"><animateMotion dur="2.4s" begin="-0.60s" repeatCount="indefinite" keyPoints="0;1" keyTimes="0;1" calcMode="linear"><mpath href="#p5"/></animateMotion></circle>
<path id="p6" class="flow" d="M424 63.0 C 560 63.0, 560 90, 620 90"/>
<circle r="3.5" fill="#22d3ee" filter="url(#ag)"><animateMotion dur="2.4s" begin="-0.60s" repeatCount="indefinite" keyPoints="0;1" keyTimes="0;1" calcMode="linear"><mpath href="#p6"/></animateMotion></circle>
<path id="p7" class="flow" d="M424 119.0 C 560 119.0, 560 90, 620 90"/>
<circle r="3.5" fill="#22d3ee" filter="url(#ag)"><animateMotion dur="2.4s" begin="-0.75s" repeatCount="indefinite" keyPoints="0;1" keyTimes="0;1" calcMode="linear"><mpath href="#p7"/></animateMotion></circle>
<path id="p8" class="flow" d="M424 175.0 C 560 175.0, 560 170, 620 170"/>
<circle r="3.5" fill="#22d3ee" filter="url(#ag)"><animateMotion dur="2.4s" begin="-0.90s" repeatCount="indefinite" keyPoints="0;1" keyTimes="0;1" calcMode="linear"><mpath href="#p8"/></animateMotion></circle>
<path id="p9" class="flow" d="M424 231.0 C 560 231.0, 560 170, 620 170"/>
<circle r="3.5" fill="#22d3ee" filter="url(#ag)"><animateMotion dur="2.4s" begin="-1.05s" repeatCount="indefinite" keyPoints="0;1" keyTimes="0;1" calcMode="linear"><mpath href="#p9"/></animateMotion></circle>
<path id="p10" class="flow" d="M424 287.0 C 560 287.0, 560 250, 620 250"/>
<circle r="3.5" fill="#22d3ee" filter="url(#ag)"><animateMotion dur="2.4s" begin="-1.20s" repeatCount="indefinite" keyPoints="0;1" keyTimes="0;1" calcMode="linear"><mpath href="#p10"/></animateMotion></circle>
<text class="t" x="836" y="338" fill="#475569" font-size="10.5" text-anchor="end">gateway + services from OnCampus Deals · data stores used across SEHRA, Riseon, Urban Crap</text>
</svg>